<?xml version="1.0" encoding="UTF-8"?><svg id="Layer_1" xmlns="http://www.w3.org/2000/svg" viewBox="0 0 841.89 595.28"><defs><style>.cls-1{fill:#f1592a;}</style></defs><path class="cls-1" d="M83.4,227.37l64.54-16.84-62.06,153.73,7.8-1.06,32.8-.71-3.72,13.12-71.1,4.08-4.61-18.26,33.51-97.52,2.84-36.53Z"/><path class="cls-1" d="M158.58,224.36l29.79,10.46,163.66-15.96-56.03,142.38-57.27,6.92,13.12-27.66,21.1-22.16,9.22-28.37,25.71-36.88-31.56,23.4-53.55,6.56-19.86,67.02,3.01,.71,28.72-51.24,35.11-4.61-7.27,21.81-28.55,2.13-28.01,62.41-37.23,7.45-10.11-164.37Z"/><path class="cls-1" d="M443.16,289.08l-57.27,8.33-5.67,23.05,57.45-5.5,11.88-9.75,69.5-6.03-49.65,96.81-78.02,5.5-13.48-10.46,10.11-17.2,18.44-4.96,6.74,11.53,25.89-6.21,11.7-37.41-113.65,7.8,3.72-26.77,11.17,.71,29.79-98.23,28.9,20.57,148.76-18.44-28.9,63.12-40.25,8.16-47.16-4.61Z"/><path class="cls-1" d="M575.79,200.6l-36.88,2.66-53.72,6.74,3.55-34.75,18.09-16.14,8.16-15.6-27.84,2.13-6.03,49.65-10.28,1.6,7.45-77.66,14.36,4.96,58.69-2.66-17.38,42.38-20.21,9.22-1.24,3.55,77.13-15.43-13.83,39.36Z"/><path class="cls-1" d="M628.63,327.2l-7.09,58.33-54.61,21.99-13.48,9.57-8.69-122.88,50.89-7.09-6.56,71.46,11.35-2.84,8.87-42.2,25.71-11.53,18.09-60.99-5.67,1.24-14.54,46.1-18.26,9.04,18.79-63.83,51.06-6.56-28.01,88.48-27.84,11.7Z"/><path class="cls-1" d="M692.46,357.52l13.12-24.65,41.31-13.3,11.88,5.5-15.07,46.81-13.48-2.66-27.48-.35-10.28-11.35Zm35.28-126.6l3.9,25.71-13.65,40.07-3.01,19.33-4.79-19.86-.53-8.33,6.56-11.88,11.53-45.04Zm34.22,77.13l-38.65,9.04,41.49-142.02,14.36-10.99,43.09-3.55-54.79,123.05-.18,10.11-5.32,14.36Z"/></svg>