<?xml version="1.0" encoding="UTF-8"?><svg id="Layer_1" xmlns="http://www.w3.org/2000/svg" viewBox="0 0 841.89 595.28"><defs><style>.cls-1{fill:#f1592a;}</style></defs><path class="cls-1" d="M213.48,255.86l57.31-13.05,10.21,223.58-59.58,13.62-7.94-224.15Zm86.26-27.81h61.29l-12.48,225.29-59.02-8.51,10.21-216.78Z"/><path class="cls-1" d="M422.87,301.83l43.7,132.79,10.78-3.4-14.75-183.29-24.97,1.7v-15.32l81.72-2.27,4.54,195.78-96.47,32.35-44.83-139.6,40.29-18.73Z"/><path class="cls-1" d="M369.25,107.18l34.62-13.34,38.59,28.94,20.43-21.56,37.17,1.13-10.78,51.64,46.82-51.64,34.9,21.56-76.89,57.6-44.55-3.4,15.61-45.68-29.79,19.29-24.12-22.98,13.05,57.6-33.48-1.13-21.56-78.03Z"/></svg>